{"asset":{"version":"2.0","generator":"Blockbench 4.2.2 glTF exporter"},"scenes":[{"nodes":[16],"name":"blockbench_export"}],"scene":0,"nodes":[{"name":"base","mesh":0},{"rotation":[0.06540312923014306,0,0,0.9978589232386035],"translation":[-0.21875,0.09375,0.28125],"name":"legs","mesh":1},{"rotation":[-0.06540312923014306,0,0,0.9978589232386035],"translation":[-0.21875,0.09375,-0.03125],"name":"legs","mesh":2},{"rotation":[0.06540312923014306,0,0,0.9978589232386035],"translation":[0.21875,0.09375,0.28125],"name":"legs","mesh":3},{"rotation":[-0.06540312923014306,0,0,0.9978589232386035],"translation":[0.21875,0.09375,-0.03125],"name":"legs","mesh":4},{"translation":[0,-0.25,-0.125],"name":"spinner","mesh":5},{"rotation":[0,0,-0.19509032201612825,0.9807852804032304],"translation":[-0.09375,-0.03125,0],"name":"claw","mesh":6},{"rotation":[0,0,0.19509032201612825,0.9807852804032304],"translation":[0.09375,-0.03125,0],"name":"claw","mesh":7},{"rotation":[0,0,0.02617694830787315,0.9996573249755573],"name":"arm","mesh":8},{"rotation":[0,0,0.02617694830787315,0.9996573249755573],"name":"arm","mesh":9},{"translation":[-0.09375,0.03125,0],"name":"leftarm","children":[8,9]},{"rotation":[0,0,-0.02617694830787315,0.9996573249755573],"name":"arm","mesh":10},{"rotation":[0,0,-0.02617694830787315,0.9996573249755573],"name":"arm","mesh":11},{"translation":[0.09375,0.03125,0],"name":"rightarm","children":[11,12]},{"translation":[0,0.25,0.125],"name":"uppertelerotate","children":[5,6,7,10,13]},{"translation":[0,0,-0.125],"name":"teleporter","children":[0,1,2,3,4,14]},{"children":[15]}],"bufferViews":[{"buffer":0,"byteOffset":0,"byteLength":288,"target":34962,"byteStride":12},{"buffer":0,"byteOffset":288,"byteLength":288,"target":34962,"byteStride":12},{"buffer":0,"byteOffset":576,"byteLength":192,"target":34962,"byteStride":8},{"buffer":0,"byteOffset":768,"byteLength":72,"target":34963},{"buffer":0,"byteOffset":840,"byteLength":288,"target":34962,"byteStride":12},{"buffer":0,"byteOffset":1128,"byteLength":288,"target":34962,"byteStride":12},{"buffer":0,"byteOffset":1416,"byteLength":192,"target":34962,"byteStride":8},{"buffer":0,"byteOffset":1608,"byteLength":60,"target":34963},{"buffer":0,"byteOffset":1668,"byteLength":288,"target":34962,"byteStride":12},{"buffer":0,"byteOffset":1956,"byteLength":288,"target":34962,"byteStride":12},{"buffer":0,"byteOffset":2244,"byteLength":192,"target":34962,"byteStride":8},{"buffer":0,"byteOffset":2436,"byteLength":60,"target":34963},{"buffer":0,"byteOffset":2496,"byteLength":288,"target":34962,"byteStride":12},{"buffer":0,"byteOffset":2784,"byteLength":288,"target":34962,"byteStride":12},{"buffer":0,"byteOffset":3072,"byteLength":192,"target":34962,"byteStride":8},{"buffer":0,"byteOffset":3264,"byteLength":60,"target":34963},{"buffer":0,"byteOffset":3324,"byteLength":288,"target":34962,"byteStride":12},{"buffer":0,"byteOffset":3612,"byteLength":288,"target":34962,"byteStride":12},{"buffer":0,"byteOffset":3900,"byteLength":192,"target":34962,"byteStride":8},{"buffer":0,"byteOffset":4092,"byteLength":60,"target":34963},{"buffer":0,"byteOffset":4152,"byteLength":288,"target":34962,"byteStride":12},{"buffer":0,"byteOffset":4440,"byteLength":288,"target":34962,"byteStride":12},{"buffer":0,"byteOffset":4728,"byteLength":192,"target":34962,"byteStride":8},{"buffer":0,"byteOffset":4920,"byteLength":60,"target":34963},{"buffer":0,"byteOffset":4980,"byteLength":288,"target":34962,"byteStride":12},{"buffer":0,"byteOffset":5268,"byteLength":288,"target":34962,"byteStride":12},{"buffer":0,"byteOffset":5556,"byteLength":192,"target":34962,"byteStride":8},{"buffer":0,"byteOffset":5748,"byteLength":36,"target":34963},{"buffer":0,"byteOffset":5784,"byteLength":288,"target":34962,"byteStride":12},{"buffer":0,"byteOffset":6072,"byteLength":288,"target":34962,"byteStride":12},{"buffer":0,"byteOffset":6360,"byteLength":192,"target":34962,"byteStride":8},{"buffer":0,"byteOffset":6552,"byteLength":36,"target":34963},{"buffer":0,"byteOffset":6588,"byteLength":288,"target":34962,"byteStride":12},{"buffer":0,"byteOffset":6876,"byteLength":288,"target":34962,"byteStride":12},{"buffer":0,"byteOffset":7164,"byteLength":192,"target":34962,"byteStride":8},{"buffer":0,"byteOffset":7356,"byteLength":72,"target":34963},{"buffer":0,"byteOffset":7428,"byteLength":288,"target":34962,"byteStride":12},{"buffer":0,"byteOffset":7716,"byteLength":288,"target":34962,"byteStride":12},{"buffer":0,"byteOffset":8004,"byteLength":192,"target":34962,"byteStride":8},{"buffer":0,"byteOffset":8196,"byteLength":72,"target":34963},{"buffer":0,"byteOffset":8268,"byteLength":288,"target":34962,"byteStride":12},{"buffer":0,"byteOffset":8556,"byteLength":288,"target":34962,"byteStride":12},{"buffer":0,"byteOffset":8844,"byteLength":192,"target":34962,"byteStride":8},{"buffer":0,"byteOffset":9036,"byteLength":72,"target":34963},{"buffer":0,"byteOffset":9108,"byteLength":288,"target":34962,"byteStride":12},{"buffer":0,"byteOffset":9396,"byteLength":288,"target":34962,"byteStride":12},{"buffer":0,"byteOffset":9684,"byteLength":192,"target":34962,"byteStride":8},{"buffer":0,"byteOffset":9876,"byteLength":72,"target":34963},{"buffer":0,"byteOffset":9948,"byteLength":24},{"buffer":0,"byteOffset":9972,"byteLength":96},{"buffer":0,"byteOffset":10068,"byteLength":4},{"buffer":0,"byteOffset":10072,"byteLength":16},{"buffer":0,"byteOffset":10088,"byteLength":4},{"buffer":0,"byteOffset":10092,"byteLength":16}],"buffers":[{"byteLength":10108,"uri":"data:application/octet-stream;base64,"}],"accessors":[{"bufferView":0,"componentType":5126,"count":24,"max":[0.34375,0.125,0.28125],"min":[-0.34375,0,-0.03125],"type":"VEC3"},{"bufferView":1,"componentType":5126,"count":24,"max":[1,1,1],"min":[-1,-1,-1],"type":"VEC3"},{"bufferView":2,"componentType":5126,"count":24,"max":[0.5,0.78125],"min":[0,0.3125],"type":"VEC2"},{"bufferView":3,"componentType":5123,"count":36,"max":[23],"min":[0],"type":"SCALAR"},{"bufferView":4,"componentType":5126,"count":24,"max":[0.0625,0,0.25],"min":[-0.0625,-0.0625,0],"type":"VEC3"},{"bufferView":5,"componentType":5126,"count":24,"max":[1,1,1],"min":[-1,-1,-1],"type":"VEC3"},{"bufferView":6,"componentType":5126,"count":24,"max":[1,1],"min":[0,0],"type":"VEC2"},{"bufferView":7,"componentType":5123,"count":30,"max":[19],"min":[0],"type":"SCALAR"},{"bufferView":8,"componentType":5126,"count":24,"max":[0.0625,0,0],"min":[-0.0625,-0.0625,-0.25],"type":"VEC3"},{"bufferView":9,"componentType":5126,"count":24,"max":[1,1,1],"min":[-1,-1,-1],"type":"VEC3"},{"bufferView":10,"componentType":5126,"count":24,"max":[1,1],"min":[0,0],"type":"VEC2"},{"bufferView":11,"componentType":5123,"count":30,"max":[23],"min":[0],"type":"SCALAR"},{"bufferView":12,"componentType":5126,"count":24,"max":[0.0625,0,0.25],"min":[-0.0625,-0.0625,0],"type":"VEC3"},{"bufferView":13,"componentType":5126,"count":24,"max":[1,1,1],"min":[-1,-1,-1],"type":"VEC3"},{"bufferView":14,"componentType":5126,"count":24,"max":[1,1],"min":[0,0],"type":"VEC2"},{"bufferView":15,"componentType":5123,"count":30,"max":[19],"min":[0],"type":"SCALAR"},{"bufferView":16,"componentType":5126,"count":24,"max":[0.0625,0,0],"min":[-0.0625,-0.0625,-0.25],"type":"VEC3"},{"bufferView":17,"componentType":5126,"count":24,"max":[1,1,1],"min":[-1,-1,-1],"type":"VEC3"},{"bufferView":18,"componentType":5126,"count":24,"max":[1,1],"min":[0,0],"type":"VEC2"},{"bufferView":19,"componentType":5123,"count":30,"max":[23],"min":[0],"type":"SCALAR"},{"bufferView":20,"componentType":5126,"count":24,"max":[0.09375,0.25,0.21875],"min":[-0.09375,0.125,0.03125],"type":"VEC3"},{"bufferView":21,"componentType":5126,"count":24,"max":[1,1,1],"min":[-1,-1,-1],"type":"VEC3"},{"bufferView":22,"componentType":5126,"count":24,"max":[1,1],"min":[0,0],"type":"VEC2"},{"bufferView":23,"componentType":5123,"count":30,"max":[23],"min":[0],"type":"SCALAR"},{"bufferView":24,"componentType":5126,"count":24,"max":[0.03125,0.03125,0.15625],"min":[-0.15625,-0.03125,-0.15625],"type":"VEC3"},{"bufferView":25,"componentType":5126,"count":24,"max":[1,1,1],"min":[-1,-1,-1],"type":"VEC3"},{"bufferView":26,"componentType":5126,"count":24,"max":[1,1],"min":[0,0],"type":"VEC2"},{"bufferView":27,"componentType":5123,"count":18,"max":[23],"min":[8],"type":"SCALAR"},{"bufferView":28,"componentType":5126,"count":24,"max":[0.15625,0.03125,0.15625],"min":[-0.03125,-0.03125,-0.15625],"type":"VEC3"},{"bufferView":29,"componentType":5126,"count":24,"max":[1,1,1],"min":[-1,-1,-1],"type":"VEC3"},{"bufferView":30,"componentType":5126,"count":24,"max":[1,1],"min":[0,0],"type":"VEC2"},{"bufferView":31,"componentType":5123,"count":18,"max":[23],"min":[8],"type":"SCALAR"},{"bufferView":32,"componentType":5126,"count":24,"max":[0,0,0.125],"min":[-0.25,-0.125,-0.125],"type":"VEC3"},{"bufferView":33,"componentType":5126,"count":24,"max":[1,1,1],"min":[-1,-1,-1],"type":"VEC3"},{"bufferView":34,"componentType":5126,"count":24,"max":[0.46875,1],"min":[0,0.65625],"type":"VEC2"},{"bufferView":35,"componentType":5123,"count":36,"max":[23],"min":[0],"type":"SCALAR"},{"bufferView":36,"componentType":5126,"count":24,"max":[-0.25,0,0.125],"min":[-0.5,-0.1875,-0.125],"type":"VEC3"},{"bufferView":37,"componentType":5126,"count":24,"max":[1,1,1],"min":[-1,-1,-1],"type":"VEC3"},{"bufferView":38,"componentType":5126,"count":24,"max":[0.21875,1],"min":[0,0.65625],"type":"VEC2"},{"bufferView":39,"componentType":5123,"count":36,"max":[23],"min":[0],"type":"SCALAR"},{"bufferView":40,"componentType":5126,"count":24,"max":[0.25,0,0.125],"min":[0,-0.125,-0.125],"type":"VEC3"},{"bufferView":41,"componentType":5126,"count":24,"max":[1,1,1],"min":[-1,-1,-1],"type":"VEC3"},{"bufferView":42,"componentType":5126,"count":24,"max":[0.46875,1],"min":[0.21875,0.65625],"type":"VEC2"},{"bufferView":43,"componentType":5123,"count":36,"max":[23],"min":[0],"type":"SCALAR"},{"bufferView":44,"componentType":5126,"count":24,"max":[0.5,0,0.125],"min":[0.25,-0.1875,-0.125],"type":"VEC3"},{"bufferView":45,"componentType":5126,"count":24,"max":[1,1,1],"min":[-1,-1,-1],"type":"VEC3"},{"bufferView":46,"componentType":5126,"count":24,"max":[0.21875,1],"min":[0,0.65625],"type":"VEC2"},{"bufferView":47,"componentType":5123,"count":36,"max":[23],"min":[0],"type":"SCALAR"},{"bufferView":48,"componentType":5126,"count":6,"max":[0.5],"min":[0],"type":"SCALAR"},{"bufferView":49,"componentType":5126,"count":6,"max":[0,0.9510565400123596,0,1],"min":[0,-0.9510565400123596,0,-0.80901700258255],"type":"VEC4"},{"bufferView":50,"componentType":5126,"count":1,"max":[0],"min":[0],"type":"SCALAR"},{"bufferView":51,"componentType":5126,"count":1,"max":[0,0,-0.026176948100328445,0.9996573328971863],"min":[0,0,-0.026176948100328445,0.9996573328971863],"type":"VEC4"},{"bufferView":52,"componentType":5126,"count":1,"max":[0],"min":[0],"type":"SCALAR"},{"bufferView":53,"componentType":5126,"count":1,"max":[0,0,0.026176948100328445,0.9996573328971863],"min":[0,0,0.026176948100328445,0.9996573328971863],"type":"VEC4"}],"materials":[{"pbrMetallicRoughness":{"metallicFactor":0,"roughnessFactor":1,"baseColorTexture":{"index":0}},"alphaMode":"MASK","alphaCutoff":0.05,"doubleSided":true}],"textures":[{"sampler":0,"source":0,"name":"teleporter_light_red.png"}],"samplers":[{"magFilter":9728,"minFilter":9728,"wrapS":33071,"wrapT":33071}],"images":[{"mimeType":"image/png","uri":"data:image/png;base64,"}],"meshes":[{"primitives":[{"mode":4,"attributes":{"POSITION":0,"NORMAL":1,"TEXCOORD_0":2},"indices":3,"material":0}]},{"primitives":[{"mode":4,"attributes":{"POSITION":4,"NORMAL":5,"TEXCOORD_0":6},"indices":7,"material":0}]},{"primitives":[{"mode":4,"attributes":{"POSITION":8,"NORMAL":9,"TEXCOORD_0":10},"indices":11,"material":0}]},{"primitives":[{"mode":4,"attributes":{"POSITION":12,"NORMAL":13,"TEXCOORD_0":14},"indices":15,"material":0}]},{"primitives":[{"mode":4,"attributes":{"POSITION":16,"NORMAL":17,"TEXCOORD_0":18},"indices":19,"material":0}]},{"primitives":[{"mode":4,"attributes":{"POSITION":20,"NORMAL":21,"TEXCOORD_0":22},"indices":23,"material":0}]},{"primitives":[{"mode":4,"attributes":{"POSITION":24,"NORMAL":25,"TEXCOORD_0":26},"indices":27,"material":0}]},{"primitives":[{"mode":4,"attributes":{"POSITION":28,"NORMAL":29,"TEXCOORD_0":30},"indices":31,"material":0}]},{"primitives":[{"mode":4,"attributes":{"POSITION":32,"NORMAL":33,"TEXCOORD_0":34},"indices":35,"material":0}]},{"primitives":[{"mode":4,"attributes":{"POSITION":36,"NORMAL":37,"TEXCOORD_0":38},"indices":39,"material":0}]},{"primitives":[{"mode":4,"attributes":{"POSITION":40,"NORMAL":41,"TEXCOORD_0":42},"indices":43,"material":0}]},{"primitives":[{"mode":4,"attributes":{"POSITION":44,"NORMAL":45,"TEXCOORD_0":46},"indices":47,"material":0}]}],"animations":[{"name":"teleporter_light.spin.loop","samplers":[{"input":48,"output":49,"interpolation":"LINEAR"},{"input":50,"output":51,"interpolation":"LINEAR"},{"input":52,"output":53,"interpolation":"LINEAR"}],"channels":[{"sampler":0,"target":{"node":14,"path":"rotation"}},{"sampler":1,"target":{"node":10,"path":"rotation"}},{"sampler":2,"target":{"node":13,"path":"rotation"}}]}]}