# Made in Blockbench 3.8.3
mtllib meettheteamfloor.mtl
o cube
v 6.5 0.0000625 2.5
v 6.5 0.0000625 -3.5
v 6.5 0 2.5
v 6.5 0 -3.5
v -6.5 0.0000625 -3.5
v -6.5 0.0000625 2.5
v -6.5 0 -3.5
v -6.5 0 2.5
vt 0 0.8482142857142857
vt 0 -0.008928571428571397
vt 1 0.8482142857142857
vt 0 -0.008928571428571397
vt 1 -0.008928571428571397
vt 1 0.8482142857142857
vn 0 1 0
vn 0 1 0
vn 0 1 0
vn 0 1 0
vn 0 1 0
vn 0 1 0
usemtl m_0
f 5/1/1 6/2/2 2/3/3
f 6/4/4 1/5/5 2/6/6
o cube
v 6.5 7 2.5000625
v 6.5 7 2.5
v 6.5 0 2.5000625
v 6.5 0 2.5
v -6.5 7 2.5
v -6.5 7 2.5000625
v -6.5 0 2.5
v -6.5 0 2.5000625
vt 0 1
vt 0 0
vt 1 1
vt 0 0
vt 1 0
vt 1 1
vn 0 0 -1
vn 0 0 -1
vn 0 0 -1
vn 0 0 -1
vn 0 0 -1
vn 0 0 -1
usemtl m_1
f 10/7/7 12/8/8 13/9/9
f 12/10/10 15/11/11 13/12/12
o cube
v 6.5 0.5 2.5
v 6.5 0.5 2.375
v 6.5 0 2.5
v 6.5 0 2.375
v -6.5 0.5 2.375
v -6.5 0.5 2.5
v -6.5 0 2.375
v -6.5 0 2.5
vt 0 0.0803571428571429
vt 0 0.0625
vt 1 0.0803571428571429
vt 0 0.0625
vt 1 0.0625
vt 1 0.0803571428571429
vt 0 0.0625
vt 0 -0.008928571428571397
vt 1 0.0625
vt 0 -0.008928571428571397
vt 1 -0.008928571428571397
vt 1 0.0625
vn 0 1 0
vn 0 1 0
vn 0 1 0
vn 0 1 0
vn 0 1 0
vn 0 1 0
vn 0 0 -1
vn 0 0 -1
vn 0 0 -1
vn 0 0 -1
vn 0 0 -1
vn 0 0 -1
usemtl m_2
f 21/13/13 22/14/14 18/15/15
f 22/16/16 17/17/17 18/18/18
usemtl m_2
f 18/19/19 20/20/20 21/21/21
f 20/22/22 23/23/23 21/24/24
