# Made in Blockbench 3.8.3
mtllib scoutbat.mtl
o base
v 0.5641365869433587 0.7812057068931573 -0.23348568663720248
v 0.5592412418716904 0.8089685883988644 -0.32289665076984875
v 0.5718996124358974 0.737179401552094 -0.2475812709889653
v 0.5670042673642292 0.7649422830578011 -0.3369922351216116
v 0.46691551502679596 0.7926890717425896 -0.32289665076984875
v 0.4718108600984642 0.7649261902368826 -0.23348568663720248
v 0.4746785405193346 0.7486627664015264 -0.3369922351216116
v 0.47957388559100284 0.7208998848958192 -0.2475812709889653
vt 0.375 0.28125
vt 0.375 0.25
vt 0.5 0.28125
vt 0.375 0.25
vt 0.5 0.25
vt 0.5 0.28125
vt 0 0.28125
vt 0 0.25
vt 0.125 0.28125
vt 0 0.25
vt 0.125 0.25
vt 0.125 0.28125
vt 0.125 0.15625
vt 0.125 0.21875
vt 0 0.15625
vt 0.125 0.21875
vt 0 0.21875
vt 0 0.15625
vt 0.25 0.15625
vt 0.25 0.21875
vt 0.125 0.15625
vt 0.25 0.21875
vt 0.125 0.21875
vt 0.125 0.15625
vt 0.1875 0.28125
vt 0.1875 0.25
vt 0.3125 0.28125
vt 0.1875 0.25
vt 0.3125 0.25
vt 0.3125 0.28125
vt 0.5625 0.28125
vt 0.5625 0.25
vt 0.6875 0.28125
vt 0.5625 0.25
vt 0.6875 0.25
vt 0.6875 0.28125
vn 0.9848077530122081 0.1736481776669303 -1.3877787807814457e-17
vn 0.9848077530122081 0.1736481776669303 -1.3877787807814457e-17
vn 0.9848077530122081 0.1736481776669303 -1.3877787807814457e-17
vn 0.9848077530122081 0.1736481776669303 -1.3877787807814457e-17
vn 0.9848077530122081 0.1736481776669303 -1.3877787807814457e-17
vn 0.9848077530122081 0.1736481776669303 -1.3877787807814457e-17
vn -0.9848077530122081 -0.1736481776669303 1.3877787807814457e-17
vn -0.9848077530122081 -0.1736481776669303 1.3877787807814457e-17
vn -0.9848077530122081 -0.1736481776669303 1.3877787807814457e-17
vn -0.9848077530122081 -0.1736481776669303 1.3877787807814457e-17
vn -0.9848077530122081 -0.1736481776669303 1.3877787807814457e-17
vn -0.9848077530122081 -0.1736481776669303 1.3877787807814457e-17
vn -0.16561121050749114 0.939227847276016 0.3007057995042731
vn -0.16561121050749114 0.939227847276016 0.3007057995042731
vn -0.16561121050749114 0.939227847276016 0.3007057995042731
vn -0.16561121050749114 0.939227847276016 0.3007057995042731
vn -0.16561121050749114 0.939227847276016 0.3007057995042731
vn -0.16561121050749114 0.939227847276016 0.3007057995042731
vn 0.16561121050749114 -0.939227847276016 -0.3007057995042731
vn 0.16561121050749114 -0.939227847276016 -0.3007057995042731
vn 0.16561121050749114 -0.939227847276016 -0.3007057995042731
vn 0.16561121050749114 -0.939227847276016 -0.3007057995042731
vn 0.16561121050749114 -0.939227847276016 -0.3007057995042731
vn 0.16561121050749114 -0.939227847276016 -0.3007057995042731
vn 0.05221701409779434 -0.29613740272754274 0.9537169507482268
vn 0.05221701409779434 -0.29613740272754274 0.9537169507482268
vn 0.05221701409779434 -0.29613740272754274 0.9537169507482268
vn 0.05221701409779434 -0.29613740272754274 0.9537169507482268
vn 0.05221701409779434 -0.29613740272754274 0.9537169507482268
vn 0.05221701409779434 -0.29613740272754274 0.9537169507482268
vn -0.05221701409779434 0.29613740272754274 -0.9537169507482268
vn -0.05221701409779434 0.29613740272754274 -0.9537169507482268
vn -0.05221701409779434 0.29613740272754274 -0.9537169507482268
vn -0.05221701409779434 0.29613740272754274 -0.9537169507482268
vn -0.05221701409779434 0.29613740272754274 -0.9537169507482268
vn -0.05221701409779434 0.29613740272754274 -0.9537169507482268
usemtl m_0
f 1/1/1 3/2/2 2/3/3
f 3/4/4 4/5/5 2/6/6
usemtl m_0
f 5/7/7 7/8/8 6/9/9
f 7/10/10 8/11/11 6/12/12
usemtl m_0
f 5/13/13 6/14/14 2/15/15
f 6/16/16 1/17/17 2/18/18
usemtl m_0
f 8/19/19 7/20/20 3/21/21
f 7/22/22 4/23/23 3/24/24
usemtl m_0
f 6/25/25 8/26/26 1/27/27
f 8/28/28 3/29/29 1/30/30
usemtl m_0
f 2/31/31 4/32/32 5/33/33
f 4/34/34 7/35/35 5/36/36
o bat
v 0.4865063320179722 1.2214687603037897 -0.09252984311957443
v 0.481610986946304 1.2492316418094969 -0.18194080725222073
v 0.5175584339881268 1.0453635389395368 -0.14891218052662564
v 0.5126630889164586 1.073126420445244 -0.23832314465927193
v 0.3892852601014095 1.2329521251532223 -0.18194080725222073
v 0.39418060517307774 1.2051892436475151 -0.09252984311957443
v 0.4203373620715641 1.0568469037889692 -0.23832314465927193
v 0.4252327071432323 1.029084022283262 -0.14891218052662564
vt 0.375 0.59375
vt 0.375 0.46875
vt 0.5 0.59375
vt 0.375 0.46875
vt 0.5 0.46875
vt 0.5 0.59375
vt 0 0.59375
vt 0 0.46875
vt 0.125 0.59375
vt 0 0.46875
vt 0.125 0.46875
vt 0.125 0.59375
vt 0.2109375 0.33984375
vt 0.2109375 0.40234375
vt 0.0859375 0.33984375
vt 0.2109375 0.40234375
vt 0.0859375 0.40234375
vt 0.0859375 0.33984375
vt 0.375 0.15625
vt 0.375 0.21875
vt 0.25 0.15625
vt 0.375 0.21875
vt 0.25 0.21875
vt 0.25 0.15625
vt 0.1875 0.59375
vt 0.1875 0.46875
vt 0.3125 0.59375
vt 0.1875 0.46875
vt 0.3125 0.46875
vt 0.3125 0.59375
vt 0.5625 0.59375
vt 0.5625 0.46875
vt 0.6875 0.59375
vt 0.5625 0.46875
vt 0.6875 0.46875
vt 0.6875 0.59375
vn 0.9848077530122081 0.1736481776669303 -1.3877787807814457e-17
vn 0.9848077530122081 0.1736481776669303 -1.3877787807814457e-17
vn 0.9848077530122081 0.1736481776669303 -1.3877787807814457e-17
vn 0.9848077530122081 0.1736481776669303 -1.3877787807814457e-17
vn 0.9848077530122081 0.1736481776669303 -1.3877787807814457e-17
vn 0.9848077530122081 0.1736481776669303 -1.3877787807814457e-17
vn -0.9848077530122081 -0.1736481776669303 1.3877787807814457e-17
vn -0.9848077530122081 -0.1736481776669303 1.3877787807814457e-17
vn -0.9848077530122081 -0.1736481776669303 1.3877787807814457e-17
vn -0.9848077530122081 -0.1736481776669303 1.3877787807814457e-17
vn -0.9848077530122081 -0.1736481776669303 1.3877787807814457e-17
vn -0.9848077530122081 -0.1736481776669303 1.3877787807814457e-17
vn -0.16561121050749114 0.939227847276016 0.3007057995042731
vn -0.16561121050749114 0.939227847276016 0.3007057995042731
vn -0.16561121050749114 0.939227847276016 0.3007057995042731
vn -0.16561121050749114 0.939227847276016 0.3007057995042731
vn -0.16561121050749114 0.939227847276016 0.3007057995042731
vn -0.16561121050749114 0.939227847276016 0.3007057995042731
vn 0.16561121050749114 -0.939227847276016 -0.3007057995042731
vn 0.16561121050749114 -0.939227847276016 -0.3007057995042731
vn 0.16561121050749114 -0.939227847276016 -0.3007057995042731
vn 0.16561121050749114 -0.939227847276016 -0.3007057995042731
vn 0.16561121050749114 -0.939227847276016 -0.3007057995042731
vn 0.16561121050749114 -0.939227847276016 -0.3007057995042731
vn 0.05221701409779434 -0.29613740272754274 0.9537169507482268
vn 0.05221701409779434 -0.29613740272754274 0.9537169507482268
vn 0.05221701409779434 -0.29613740272754274 0.9537169507482268
vn 0.05221701409779434 -0.29613740272754274 0.9537169507482268
vn 0.05221701409779434 -0.29613740272754274 0.9537169507482268
vn 0.05221701409779434 -0.29613740272754274 0.9537169507482268
vn -0.05221701409779434 0.29613740272754274 -0.9537169507482268
vn -0.05221701409779434 0.29613740272754274 -0.9537169507482268
vn -0.05221701409779434 0.29613740272754274 -0.9537169507482268
vn -0.05221701409779434 0.29613740272754274 -0.9537169507482268
vn -0.05221701409779434 0.29613740272754274 -0.9537169507482268
vn -0.05221701409779434 0.29613740272754274 -0.9537169507482268
usemtl m_0
f 9/37/37 11/38/38 10/39/39
f 11/40/40 12/41/41 10/42/42
usemtl m_0
f 13/43/43 15/44/44 14/45/45
f 15/46/46 16/47/47 14/48/48
usemtl none
f 13/49/49 14/50/50 10/51/51
f 14/52/52 9/53/53 10/54/54
usemtl m_0
f 16/55/55 15/56/56 11/57/57
f 15/58/58 12/59/59 11/60/60
usemtl m_0
f 14/61/61 16/62/62 9/63/63
f 16/64/64 11/65/65 9/66/66
usemtl m_0
f 10/67/67 12/68/68 13/69/69
f 12/70/70 15/71/71 13/72/72
o bat
v 0.4098922685941105 1.7909398885252539 0.1130654944865036
v 0.40254925098660815 1.8325842107838146 -0.02105095171246585
v 0.5108115999971129 1.2185979190914316 -0.07017710208641287
v 0.5034685823896106 1.2602422413499923 -0.20429354828538226
v 0.2640606607192664 1.8081649357994025 -0.02105095171246585
v 0.27140367832676876 1.7665206135408418 0.1130654944865036
v 0.36497999212226884 1.2358229663655802 -0.20429354828538226
v 0.3723230097297711 1.1941786441070195 -0.07017710208641287
vt 0.375 1
vt 0.375 0.59375
vt 0.5625 1
vt 0.375 0.59375
vt 0.5625 0.59375
vt 0.5625 1
vt 0 1
vt 0 0.59375
vt 0.1875 1
vt 0 0.59375
vt 0.1875 0.59375
vt 0.1875 1
vt 0.75 0.125
vt 0.75 0.21875
vt 0.5625 0.125
vt 0.75 0.21875
vt 0.5625 0.21875
vt 0.5625 0.125
vt 0.5625 0.125
vt 0.5625 0.21875
vt 0.375 0.125
vt 0.5625 0.21875
vt 0.375 0.21875
vt 0.375 0.125
vt 0.1875 1
vt 0.1875 0.59375
vt 0.375 1
vt 0.1875 0.59375
vt 0.375 0.59375
vt 0.375 1
vt 0.5625 1
vt 0.5625 0.59375
vt 0.75 1
vt 0.5625 0.59375
vt 0.75 0.59375
vt 0.75 1
vn 0.9848077530122081 0.1736481776669303 -1.3877787807814457e-17
vn 0.9848077530122081 0.1736481776669303 -1.3877787807814457e-17
vn 0.9848077530122081 0.1736481776669303 -1.3877787807814457e-17
vn 0.9848077530122081 0.1736481776669303 -1.3877787807814457e-17
vn 0.9848077530122081 0.1736481776669303 -1.3877787807814457e-17
vn 0.9848077530122081 0.1736481776669303 -1.3877787807814457e-17
vn -0.9848077530122081 -0.1736481776669303 1.3877787807814457e-17
vn -0.9848077530122081 -0.1736481776669303 1.3877787807814457e-17
vn -0.9848077530122081 -0.1736481776669303 1.3877787807814457e-17
vn -0.9848077530122081 -0.1736481776669303 1.3877787807814457e-17
vn -0.9848077530122081 -0.1736481776669303 1.3877787807814457e-17
vn -0.9848077530122081 -0.1736481776669303 1.3877787807814457e-17
vn -0.16561121050749114 0.939227847276016 0.3007057995042731
vn -0.16561121050749114 0.939227847276016 0.3007057995042731
vn -0.16561121050749114 0.939227847276016 0.3007057995042731
vn -0.16561121050749114 0.939227847276016 0.3007057995042731
vn -0.16561121050749114 0.939227847276016 0.3007057995042731
vn -0.16561121050749114 0.939227847276016 0.3007057995042731
vn 0.16561121050749114 -0.939227847276016 -0.3007057995042731
vn 0.16561121050749114 -0.939227847276016 -0.3007057995042731
vn 0.16561121050749114 -0.939227847276016 -0.3007057995042731
vn 0.16561121050749114 -0.939227847276016 -0.3007057995042731
vn 0.16561121050749114 -0.939227847276016 -0.3007057995042731
vn 0.16561121050749114 -0.939227847276016 -0.3007057995042731
vn 0.05221701409779434 -0.29613740272754274 0.9537169507482268
vn 0.05221701409779434 -0.29613740272754274 0.9537169507482268
vn 0.05221701409779434 -0.29613740272754274 0.9537169507482268
vn 0.05221701409779434 -0.29613740272754274 0.9537169507482268
vn 0.05221701409779434 -0.29613740272754274 0.9537169507482268
vn 0.05221701409779434 -0.29613740272754274 0.9537169507482268
vn -0.05221701409779434 0.29613740272754274 -0.9537169507482268
vn -0.05221701409779434 0.29613740272754274 -0.9537169507482268
vn -0.05221701409779434 0.29613740272754274 -0.9537169507482268
vn -0.05221701409779434 0.29613740272754274 -0.9537169507482268
vn -0.05221701409779434 0.29613740272754274 -0.9537169507482268
vn -0.05221701409779434 0.29613740272754274 -0.9537169507482268
usemtl m_0
f 17/73/73 19/74/74 18/75/75
f 19/76/76 20/77/77 18/78/78
usemtl m_0
f 21/79/79 23/80/80 22/81/81
f 23/82/82 24/83/83 22/84/84
usemtl m_0
f 21/85/85 22/86/86 18/87/87
f 22/88/88 17/89/89 18/90/90
usemtl m_0
f 24/91/91 23/92/92 19/93/93
f 23/94/94 20/95/95 19/96/96
usemtl m_0
f 22/97/97 24/98/98 17/99/99
f 24/100/100 19/101/101 17/102/102
usemtl m_0
f 18/103/103 20/104/104 21/105/105
f 20/106/106 23/107/107 21/108/108
o handle
v 0.4932531660089861 1.048234380151895 -0.17126492155978718
v 0.490805493473152 1.0621158209047485 -0.21597040362611034
v 0.539831318964218 0.7840765481055154 -0.255838427670364
v 0.5373836464283839 0.797957988858369 -0.30054390973668715
v 0.44464263005070476 1.053976062576611 -0.21597040362611034
v 0.44709030258653887 1.0400946218237574 -0.17126492155978718
v 0.49122078300593663 0.7898182305302316 -0.30054390973668715
v 0.49366845554177075 0.775936789777378 -0.255838427670364
vt 0.4375 0.46875
vt 0.4375 0.28125
vt 0.5 0.46875
vt 0.4375 0.28125
vt 0.5 0.28125
vt 0.5 0.46875
vt 0.0625 0.46875
vt 0.0625 0.28125
vt 0.125 0.46875
vt 0.0625 0.28125
vt 0.125 0.28125
vt 0.125 0.46875
vt 0.6015625 0.640625
vt 0.6015625 0.671875
vt 0.5390625 0.640625
vt 0.6015625 0.671875
vt 0.5390625 0.671875
vt 0.5390625 0.640625
vt 0.6015625 0.46484375
vt 0.6015625 0.43359375
vt 0.5390625 0.46484375
vt 0.6015625 0.43359375
vt 0.5390625 0.43359375
vt 0.5390625 0.46484375
vt 0.25 0.46875
vt 0.25 0.28125
vt 0.3125 0.46875
vt 0.25 0.28125
vt 0.3125 0.28125
vt 0.3125 0.46875
vt 0.625 0.46875
vt 0.625 0.28125
vt 0.6875 0.46875
vt 0.625 0.28125
vt 0.6875 0.28125
vt 0.6875 0.46875
vn 0.9848077530122081 0.1736481776669303 -1.3877787807814457e-17
vn 0.9848077530122081 0.1736481776669303 -1.3877787807814457e-17
vn 0.9848077530122081 0.1736481776669303 -1.3877787807814457e-17
vn 0.9848077530122081 0.1736481776669303 -1.3877787807814457e-17
vn 0.9848077530122081 0.1736481776669303 -1.3877787807814457e-17
vn 0.9848077530122081 0.1736481776669303 -1.3877787807814457e-17
vn -0.9848077530122081 -0.1736481776669303 1.3877787807814457e-17
vn -0.9848077530122081 -0.1736481776669303 1.3877787807814457e-17
vn -0.9848077530122081 -0.1736481776669303 1.3877787807814457e-17
vn -0.9848077530122081 -0.1736481776669303 1.3877787807814457e-17
vn -0.9848077530122081 -0.1736481776669303 1.3877787807814457e-17
vn -0.9848077530122081 -0.1736481776669303 1.3877787807814457e-17
vn -0.16561121050749114 0.939227847276016 0.3007057995042731
vn -0.16561121050749114 0.939227847276016 0.3007057995042731
vn -0.16561121050749114 0.939227847276016 0.3007057995042731
vn -0.16561121050749114 0.939227847276016 0.3007057995042731
vn -0.16561121050749114 0.939227847276016 0.3007057995042731
vn -0.16561121050749114 0.939227847276016 0.3007057995042731
vn 0.16561121050749114 -0.939227847276016 -0.3007057995042731
vn 0.16561121050749114 -0.939227847276016 -0.3007057995042731
vn 0.16561121050749114 -0.939227847276016 -0.3007057995042731
vn 0.16561121050749114 -0.939227847276016 -0.3007057995042731
vn 0.16561121050749114 -0.939227847276016 -0.3007057995042731
vn 0.16561121050749114 -0.939227847276016 -0.3007057995042731
vn 0.05221701409779434 -0.29613740272754274 0.9537169507482268
vn 0.05221701409779434 -0.29613740272754274 0.9537169507482268
vn 0.05221701409779434 -0.29613740272754274 0.9537169507482268
vn 0.05221701409779434 -0.29613740272754274 0.9537169507482268
vn 0.05221701409779434 -0.29613740272754274 0.9537169507482268
vn 0.05221701409779434 -0.29613740272754274 0.9537169507482268
vn -0.05221701409779434 0.29613740272754274 -0.9537169507482268
vn -0.05221701409779434 0.29613740272754274 -0.9537169507482268
vn -0.05221701409779434 0.29613740272754274 -0.9537169507482268
vn -0.05221701409779434 0.29613740272754274 -0.9537169507482268
vn -0.05221701409779434 0.29613740272754274 -0.9537169507482268
vn -0.05221701409779434 0.29613740272754274 -0.9537169507482268
usemtl m_0
f 25/109/109 27/110/110 26/111/111
f 27/112/112 28/113/113 26/114/114
usemtl m_0
f 29/115/115 31/116/116 30/117/117
f 31/118/118 32/119/119 30/120/120
usemtl none
f 29/121/121 30/122/122 26/123/123
f 30/124/124 25/125/125 26/126/126
usemtl none
f 32/127/127 31/128/128 27/129/129
f 31/130/130 28/131/131 27/132/132
usemtl m_0
f 30/133/133 32/134/134 25/135/135
f 32/136/136 27/137/137 25/138/138
usemtl m_0
f 26/139/139 28/140/140 29/141/141
f 28/142/142 31/143/143 29/144/144
