# Made in Blockbench 3.8.3
mtllib spyrevolver.mtl
o cube
v 0.30940880477030125 2.342113677334983 -0.37245788214616216
v 0.30016920672341246 2.333222396466372 -0.4051922198744545
v 0.3813938194942347 1.98232052423228 -0.29504958391134817
v 0.3721542214473459 1.9734292433636689 -0.32778392163964043
v 0.3001101093627859 2.3332146161512446 -0.40517342576198545
v 0.3093497074096747 2.3421058970198554 -0.37243908803369313
v 0.37209512408671935 1.9734214630485414 -0.3277651275271714
v 0.38133472213360814 1.9823127439171526 -0.2950307897988791
vt 0 0.953125
vt 0.25 0.953125
vt 0 1
vt 0.25 0.953125
vt 0.25 1
vt 0 1
vn -0.9455577700244291 -0.12448504203688451 0.30070579950427306
vn -0.9455577700244291 -0.12448504203688451 0.30070579950427306
vn -0.9455577700244291 -0.12448504203688451 0.30070579950427306
vn -0.9455577700244291 -0.12448504203688451 0.30070579950427306
vn -0.9455577700244291 -0.12448504203688451 0.30070579950427306
vn -0.9455577700244291 -0.12448504203688451 0.30070579950427306
usemtl m_0
f 5/1/1 7/2/2 6/3/3
f 7/4/4 8/5/5 6/6/6
o cube
v 0.3222716195977334 2.3361322343239843 -0.41222121793786703
v 0.31078327324344146 2.3204025502398045 -0.4548575939758903
v 0.4025724059327471 1.9859740821328993 -0.30467563612204573
v 0.39108405957845516 1.9702443980487194 -0.347312012160069
v 0.26646025277354635 2.3145673138943255 -0.44076200962412737
v 0.2779485991278383 2.3302969979785058 -0.3981256335861041
v 0.34676103910856004 1.9644091617032404 -0.3332164278083063
v 0.358249385462852 1.9801388457874207 -0.290580051770283
vt 0 0.5625
vt 0.25 0.5625
vt 0 0.5
vt 0.25 0.5625
vt 0.25 0.5
vt 0 0.5
vt 0 0.875
vt 0.25 0.875
vt 0 0.9375
vt 0.25 0.875
vt 0.25 0.9375
vt 0 0.9375
vt 0.625 0.75
vt 0.625 0.8125
vt 0.59375 0.75
vt 0.625 0.8125
vt 0.59375 0.8125
vt 0.59375 0.75
vt 0 0.75
vt 0.25 0.75
vt 0 0.6875
vt 0.25 0.75
vt 0.25 0.6875
vt 0 0.6875
vt 0 0.3125
vt 0.25 0.3125
vt 0 0.375
vt 0.25 0.3125
vt 0.25 0.375
vt 0 0.375
vn 0.9455577700244292 0.12448504203688457 -0.30070579950427306
vn 0.9455577700244292 0.12448504203688457 -0.30070579950427306
vn 0.9455577700244292 0.12448504203688457 -0.30070579950427306
vn 0.9455577700244292 0.12448504203688457 -0.30070579950427306
vn 0.9455577700244292 0.12448504203688457 -0.30070579950427306
vn 0.9455577700244292 0.12448504203688457 -0.30070579950427306
vn -0.9455577700244292 -0.12448504203688457 0.30070579950427306
vn -0.9455577700244292 -0.12448504203688457 0.30070579950427306
vn -0.9455577700244292 -0.12448504203688457 0.30070579950427306
vn -0.9455577700244292 -0.12448504203688457 0.30070579950427306
vn -0.9455577700244292 -0.12448504203688457 0.30070579950427306
vn -0.9455577700244292 -0.12448504203688457 0.30070579950427306
vn -0.21413543022670328 0.93375507250956 -0.2867882181755231
vn -0.21413543022670328 0.93375507250956 -0.2867882181755231
vn -0.21413543022670328 0.93375507250956 -0.2867882181755231
vn -0.21413543022670328 0.93375507250956 -0.2867882181755231
vn -0.21413543022670328 0.93375507250956 -0.2867882181755231
vn -0.21413543022670328 0.93375507250956 -0.2867882181755231
vn 0.24508472222489447 0.3355665937958392 0.9095760221444962
vn 0.24508472222489447 0.3355665937958392 0.9095760221444962
vn 0.24508472222489447 0.3355665937958392 0.9095760221444962
vn 0.24508472222489447 0.3355665937958392 0.9095760221444962
vn 0.24508472222489447 0.3355665937958392 0.9095760221444962
vn 0.24508472222489447 0.3355665937958392 0.9095760221444962
vn -0.24508472222489447 -0.3355665937958392 -0.9095760221444962
vn -0.24508472222489447 -0.3355665937958392 -0.9095760221444962
vn -0.24508472222489447 -0.3355665937958392 -0.9095760221444962
vn -0.24508472222489447 -0.3355665937958392 -0.9095760221444962
vn -0.24508472222489447 -0.3355665937958392 -0.9095760221444962
vn -0.24508472222489447 -0.3355665937958392 -0.9095760221444962
usemtl m_0
f 9/7/7 11/8/8 10/9/9
f 11/10/10 12/11/11 10/12/12
usemtl m_0
f 13/13/13 15/14/14 14/15/15
f 15/16/16 16/17/17 14/18/18
usemtl m_0
f 13/19/19 14/20/20 10/21/21
f 14/22/22 9/23/23 10/24/24
usemtl m_0
f 14/25/25 16/26/26 9/27/27
f 16/28/28 11/29/29 9/30/30
usemtl m_0
f 10/31/31 12/32/32 13/33/33
f 12/34/34 15/35/35 13/36/36
o cube
v 0.43499338683843664 1.9850796448626424 -0.33179552996648276
v 0.37984231950775954 1.9515488819594589 -0.399788987088603
v 0.4550685834221901 1.8975401068148712 -0.3049091345125275
v 0.39991751609151294 1.8640093439116876 -0.37290259163464773
v 0.30673685627544856 1.952805750096256 -0.3411112738741641
v 0.36188792360612565 1.9863365129994395 -0.27311781675204394
v 0.326812052859202 1.8652662120484846 -0.31422487842020885
v 0.3819631201898791 1.8987969749516682 -0.24623142129808864
vt 0.25 0.625
vt 0.3125 0.625
vt 0.25 0.5
vt 0.3125 0.625
vt 0.3125 0.5
vt 0.25 0.5
vt 0.25 0.875
vt 0.3125 0.875
vt 0.25 1
vt 0.3125 0.875
vt 0.3125 1
vt 0.25 1
vt 0.6875 0.6875
vt 0.6875 0.8125
vt 0.625 0.6875
vt 0.6875 0.8125
vt 0.625 0.8125
vt 0.625 0.6875
vt 0.625 1
vt 0.625 0.875
vt 0.6875 1
vt 0.625 0.875
vt 0.6875 0.875
vt 0.6875 1
vt 0.25 0.75
vt 0.3125 0.75
vt 0.25 0.625
vt 0.3125 0.75
vt 0.3125 0.625
vt 0.25 0.625
vt 0.25 0.25
vt 0.3125 0.25
vt 0.25 0.375
vt 0.3125 0.25
vt 0.3125 0.375
vt 0.25 0.375
vn 0.7797916078113173 -0.013406593459168784 -0.6258956076206811
vn 0.7797916078113173 -0.013406593459168784 -0.6258956076206811
vn 0.7797916078113173 -0.013406593459168784 -0.6258956076206811
vn 0.7797916078113173 -0.013406593459168784 -0.6258956076206811
vn 0.7797916078113173 -0.013406593459168784 -0.6258956076206811
vn 0.7797916078113173 -0.013406593459168784 -0.6258956076206811
vn -0.7797916078113173 0.013406593459168784 0.6258956076206811
vn -0.7797916078113173 0.013406593459168784 0.6258956076206811
vn -0.7797916078113173 0.013406593459168784 0.6258956076206811
vn -0.7797916078113173 0.013406593459168784 0.6258956076206811
vn -0.7797916078113173 0.013406593459168784 0.6258956076206811
vn -0.7797916078113173 0.013406593459168784 0.6258956076206811
vn -0.21413543022670323 0.93375507250956 -0.2867882181755229
vn -0.21413543022670323 0.93375507250956 -0.2867882181755229
vn -0.21413543022670323 0.93375507250956 -0.2867882181755229
vn -0.21413543022670323 0.93375507250956 -0.2867882181755229
vn -0.21413543022670323 0.93375507250956 -0.2867882181755229
vn -0.21413543022670323 0.93375507250956 -0.2867882181755229
vn 0.21413543022670323 -0.93375507250956 0.2867882181755229
vn 0.21413543022670323 -0.93375507250956 0.2867882181755229
vn 0.21413543022670323 -0.93375507250956 0.2867882181755229
vn 0.21413543022670323 -0.93375507250956 0.2867882181755229
vn 0.21413543022670323 -0.93375507250956 0.2867882181755229
vn 0.21413543022670323 -0.93375507250956 0.2867882181755229
vn 0.5882780515272227 0.3576614709672922 0.725263542635949
vn 0.5882780515272227 0.3576614709672922 0.725263542635949
vn 0.5882780515272227 0.3576614709672922 0.725263542635949
vn 0.5882780515272227 0.3576614709672922 0.725263542635949
vn 0.5882780515272227 0.3576614709672922 0.725263542635949
vn 0.5882780515272227 0.3576614709672922 0.725263542635949
vn -0.5882780515272227 -0.3576614709672922 -0.725263542635949
vn -0.5882780515272227 -0.3576614709672922 -0.725263542635949
vn -0.5882780515272227 -0.3576614709672922 -0.725263542635949
vn -0.5882780515272227 -0.3576614709672922 -0.725263542635949
vn -0.5882780515272227 -0.3576614709672922 -0.725263542635949
vn -0.5882780515272227 -0.3576614709672922 -0.725263542635949
usemtl m_0
f 17/37/37 19/38/38 18/39/39
f 19/40/40 20/41/41 18/42/42
usemtl m_0
f 21/43/43 23/44/44 22/45/45
f 23/46/46 24/47/47 22/48/48
usemtl m_0
f 21/49/49 22/50/50 18/51/51
f 22/52/52 17/53/53 18/54/54
usemtl m_0
f 24/55/55 23/56/56 19/57/57
f 23/58/58 20/59/59 19/60/60
usemtl m_0
f 22/61/61 24/62/62 17/63/63
f 24/64/64 19/65/65 17/66/66
usemtl m_0
f 18/67/67 20/68/68 21/69/69
f 20/70/70 23/71/71 21/72/72
o cube
v 0.4226476025165006 1.898434544085128 -0.27778924066809046
v 0.3881825634536248 1.851245491832588 -0.4056983687821602
v 0.442722799100254 1.8108950060373568 -0.2509028452141352
v 0.40825776003737824 1.7637059537848168 -0.37881197332820493
v 0.34385954298372967 1.845410255487109 -0.3916027844303974
v 0.37832458204660546 1.892599307739649 -0.2636936563163277
v 0.3639347395674831 1.757870717439338 -0.36471638897644215
v 0.3983997786303589 1.8050597696918778 -0.23680726086237242
vt 0.3125 0.625
vt 0.375 0.625
vt 0.3125 0.4375
vt 0.375 0.625
vt 0.375 0.4375
vt 0.3125 0.4375
vt 0.3125 0.8125
vt 0.375 0.8125
vt 0.3125 1
vt 0.375 0.8125
vt 0.375 1
vt 0.3125 1
vt 0.71875 0.625
vt 0.71875 0.8125
vt 0.6875 0.625
vt 0.71875 0.8125
vt 0.6875 0.8125
vt 0.6875 0.625
vt 0.6875 1
vt 0.6875 0.8125
vt 0.71875 1
vt 0.6875 0.8125
vt 0.71875 0.8125
vt 0.71875 1
vt 0.3125 0.75
vt 0.375 0.75
vt 0.3125 0.6875
vt 0.375 0.75
vt 0.375 0.6875
vt 0.3125 0.6875
vt 0.3125 0.3125
vt 0.375 0.3125
vt 0.3125 0.375
vt 0.375 0.3125
vt 0.375 0.375
vt 0.3125 0.375
vn 0.9455577700244292 0.12448504203688457 -0.30070579950427306
vn 0.9455577700244292 0.12448504203688457 -0.30070579950427306
vn 0.9455577700244292 0.12448504203688457 -0.30070579950427306
vn 0.9455577700244292 0.12448504203688457 -0.30070579950427306
vn 0.9455577700244292 0.12448504203688457 -0.30070579950427306
vn 0.9455577700244292 0.12448504203688457 -0.30070579950427306
vn -0.9455577700244292 -0.12448504203688457 0.30070579950427306
vn -0.9455577700244292 -0.12448504203688457 0.30070579950427306
vn -0.9455577700244292 -0.12448504203688457 0.30070579950427306
vn -0.9455577700244292 -0.12448504203688457 0.30070579950427306
vn -0.9455577700244292 -0.12448504203688457 0.30070579950427306
vn -0.9455577700244292 -0.12448504203688457 0.30070579950427306
vn -0.21413543022670328 0.93375507250956 -0.2867882181755231
vn -0.21413543022670328 0.93375507250956 -0.2867882181755231
vn -0.21413543022670328 0.93375507250956 -0.2867882181755231
vn -0.21413543022670328 0.93375507250956 -0.2867882181755231
vn -0.21413543022670328 0.93375507250956 -0.2867882181755231
vn -0.21413543022670328 0.93375507250956 -0.2867882181755231
vn 0.21413543022670328 -0.93375507250956 0.2867882181755231
vn 0.21413543022670328 -0.93375507250956 0.2867882181755231
vn 0.21413543022670328 -0.93375507250956 0.2867882181755231
vn 0.21413543022670328 -0.93375507250956 0.2867882181755231
vn 0.21413543022670328 -0.93375507250956 0.2867882181755231
vn 0.21413543022670328 -0.93375507250956 0.2867882181755231
vn 0.24508472222489447 0.3355665937958392 0.9095760221444962
vn 0.24508472222489447 0.3355665937958392 0.9095760221444962
vn 0.24508472222489447 0.3355665937958392 0.9095760221444962
vn 0.24508472222489447 0.3355665937958392 0.9095760221444962
vn 0.24508472222489447 0.3355665937958392 0.9095760221444962
vn 0.24508472222489447 0.3355665937958392 0.9095760221444962
vn -0.24508472222489447 -0.3355665937958392 -0.9095760221444962
vn -0.24508472222489447 -0.3355665937958392 -0.9095760221444962
vn -0.24508472222489447 -0.3355665937958392 -0.9095760221444962
vn -0.24508472222489447 -0.3355665937958392 -0.9095760221444962
vn -0.24508472222489447 -0.3355665937958392 -0.9095760221444962
vn -0.24508472222489447 -0.3355665937958392 -0.9095760221444962
usemtl m_0
f 25/73/73 27/74/74 26/75/75
f 27/76/76 28/77/77 26/78/78
usemtl m_0
f 29/79/79 31/80/80 30/81/81
f 31/82/82 32/83/83 30/84/84
usemtl m_0
f 29/85/85 30/86/86 26/87/87
f 30/88/88 25/89/89 26/90/90
usemtl m_0
f 32/91/91 31/92/92 27/93/93
f 31/94/94 28/95/95 27/96/96
usemtl m_0
f 30/97/97 32/98/98 25/99/99
f 32/100/100 27/101/101 25/102/102
usemtl m_0
f 26/103/103 28/104/104 29/105/105
f 28/106/106 31/107/107 29/108/108
o cube
v 0.4251608670188824 1.8009236321770705 -0.23251978848969704
v 0.4103357322558375 1.8071818621403288 -0.2765460938307603
v 0.4287595974454102 1.7548362130746802 -0.2402828139822357
v 0.41393446268236533 1.7610944430379383 -0.28430911932329894
v 0.410276634895211 1.8071740818252013 -0.27652729971829126
v 0.4251017696582559 1.8009158518619433 -0.23250099437722804
v 0.4138753653217388 1.761086662722811 -0.2842903252108299
v 0.4287005000847837 1.7548284327595527 -0.2402640198697667
vt 0.375 0.8125
vt 0.40625 0.8125
vt 0.375 0.875
vt 0.40625 0.8125
vt 0.40625 0.875
vt 0.375 0.875
vn -0.9455577700244292 -0.12448504203688457 0.300705799504273
vn -0.9455577700244292 -0.12448504203688457 0.300705799504273
vn -0.9455577700244292 -0.12448504203688457 0.300705799504273
vn -0.9455577700244292 -0.12448504203688457 0.300705799504273
vn -0.9455577700244292 -0.12448504203688457 0.300705799504273
vn -0.9455577700244292 -0.12448504203688457 0.300705799504273
usemtl m_0
f 37/109/109 39/110/110 38/111/111
f 39/112/112 40/113/113 38/114/114
o cube
v 0.3600026999228115 1.9406624338509557 -0.37955859070293546
v 0.34889181876265934 1.8723363731838845 -0.4427816897535568
v 0.3884190727656993 1.877540234896156 -0.3163354916523141
v 0.3773081916055472 1.8092141742290848 -0.3795585907029355
v 0.34883272140203286 1.8723285928687572 -0.44276289564108784
v 0.35994360256218494 1.9406546535358284 -0.37953979659046644
v 0.37724909424492065 1.8092063939139575 -0.37953979659046644
v 0.3883599754050728 1.8775324545810288 -0.3163166975398451
vt 0.25 0.75
vt 0.3125 0.75
vt 0.25 0.875
vt 0.3125 0.75
vt 0.3125 0.875
vt 0.25 0.875
vn -0.9455577700244291 -0.12448504203688457 0.300705799504273
vn -0.9455577700244291 -0.12448504203688457 0.300705799504273
vn -0.9455577700244291 -0.12448504203688457 0.300705799504273
vn -0.9455577700244291 -0.12448504203688457 0.300705799504273
vn -0.9455577700244291 -0.12448504203688457 0.300705799504273
vn -0.9455577700244291 -0.12448504203688457 0.300705799504273
usemtl m_0
f 45/115/115 47/116/116 46/117/117
f 47/118/118 48/119/119 46/120/120
o cube
v 0.41441053094023667 1.8626665925550596 -0.35746828916159
v 0.3773910984268095 1.6661435593063485 -0.555230321713619
v 0.44231520786343587 1.7966241310395465 -0.2970631173400992
v 0.4052957753500087 1.6001010977908352 -0.4948251498921281
v 0.3109065677219668 1.65739070478813 -0.5340869451859748
v 0.347926000235394 1.8539137380368413 -0.3363249126339458
v 0.338811244645166 1.591348243272617 -0.4736817733644839
v 0.3758306771585932 1.787871276521328 -0.275919740812455
vt 0.375 0.5
vt 0.375 0.625
vt 0.5625 0.5
vt 0.375 0.625
vt 0.5625 0.625
vt 0.5625 0.5
vt 0.5625 0.875
vt 0.5625 1
vt 0.375 0.875
vt 0.5625 1
vt 0.375 1
vt 0.375 0.875
vt 0.90625 0.8125
vt 0.71875 0.8125
vt 0.90625 0.6875
vt 0.71875 0.8125
vt 0.71875 0.6875
vt 0.90625 0.6875
vt 0.71875 0.875
vt 0.90625 0.875
vt 0.71875 1
vt 0.90625 0.875
vt 0.90625 1
vt 0.71875 1
vt 0.375 0.75
vt 0.4375 0.75
vt 0.375 0.625
vt 0.4375 0.75
vt 0.4375 0.625
vt 0.375 0.625
vt 0.375 0.375
vt 0.375 0.25
vt 0.4375 0.375
vt 0.375 0.25
vt 0.4375 0.25
vt 0.4375 0.375
vn 0.945557770024429 0.12448504203688456 -0.30070579950427295
vn 0.945557770024429 0.12448504203688456 -0.30070579950427295
vn 0.945557770024429 0.12448504203688456 -0.30070579950427295
vn 0.945557770024429 0.12448504203688456 -0.30070579950427295
vn 0.945557770024429 0.12448504203688456 -0.30070579950427295
vn 0.945557770024429 0.12448504203688456 -0.30070579950427295
vn -0.945557770024429 -0.12448504203688456 0.30070579950427295
vn -0.945557770024429 -0.12448504203688456 0.30070579950427295
vn -0.945557770024429 -0.12448504203688456 0.30070579950427295
vn -0.945557770024429 -0.12448504203688456 0.30070579950427295
vn -0.945557770024429 -0.12448504203688456 0.30070579950427295
vn -0.945557770024429 -0.12448504203688456 0.30070579950427295
vn -0.29764988718079144 0.704452922832141 -0.644321832762569
vn -0.29764988718079144 0.704452922832141 -0.644321832762569
vn -0.29764988718079144 0.704452922832141 -0.644321832762569
vn -0.29764988718079144 0.704452922832141 -0.644321832762569
vn -0.29764988718079144 0.704452922832141 -0.644321832762569
vn -0.29764988718079144 0.704452922832141 -0.644321832762569
vn 0.29764988718079144 -0.704452922832141 0.644321832762569
vn 0.29764988718079144 -0.704452922832141 0.644321832762569
vn 0.29764988718079144 -0.704452922832141 0.644321832762569
vn 0.29764988718079144 -0.704452922832141 0.644321832762569
vn 0.29764988718079144 -0.704452922832141 0.644321832762569
vn 0.29764988718079144 -0.704452922832141 0.644321832762569
vn 0.13162464893662995 0.6987485626620844 0.703153893518325
vn 0.13162464893662995 0.6987485626620844 0.703153893518325
vn 0.13162464893662995 0.6987485626620844 0.703153893518325
vn 0.13162464893662995 0.6987485626620844 0.703153893518325
vn 0.13162464893662995 0.6987485626620844 0.703153893518325
vn 0.13162464893662995 0.6987485626620844 0.703153893518325
vn -0.13162464893662995 -0.6987485626620844 -0.703153893518325
vn -0.13162464893662995 -0.6987485626620844 -0.703153893518325
vn -0.13162464893662995 -0.6987485626620844 -0.703153893518325
vn -0.13162464893662995 -0.6987485626620844 -0.703153893518325
vn -0.13162464893662995 -0.6987485626620844 -0.703153893518325
vn -0.13162464893662995 -0.6987485626620844 -0.703153893518325
usemtl m_0
f 49/121/121 51/122/122 50/123/123
f 51/124/124 52/125/125 50/126/126
usemtl m_0
f 53/127/127 55/128/128 54/129/129
f 55/130/130 56/131/131 54/132/132
usemtl m_0
f 53/133/133 54/134/134 50/135/135
f 54/136/136 49/137/137 50/138/138
usemtl m_0
f 56/139/139 55/140/140 51/141/141
f 55/142/142 52/143/143 51/144/144
usemtl m_0
f 54/145/145 56/146/146 49/147/147
f 56/148/148 51/149/149 49/150/150
usemtl m_0
f 50/151/151 52/152/152 53/153/153
f 52/154/154 55/155/155 53/156/156
o cube
v 0.2915529469576934 2.3214251334032374 -0.43716950190297243
v 0.28006460060340155 2.3056954493190576 -0.4798058779409953
v 0.3718537332927071 1.9712669812121524 -0.32962392008715113
v 0.36036538693841524 1.9555372971279725 -0.372260296125174
v 0.280005503242775 2.3056876690039303 -0.4797870838285261
v 0.29149384959706687 2.32141735308811 -0.43715070779050325
v 0.3603062895777887 1.9555295168128453 -0.372241502012705
v 0.37179463593208056 1.971259200897025 -0.32960512597468217
vt 0 0.8125
vt 0.25 0.8125
vt 0 0.875
vt 0.25 0.8125
vt 0.25 0.875
vt 0 0.875
vn -0.9455577700244292 -0.12448504203688457 0.30070579950427306
vn -0.9455577700244292 -0.12448504203688457 0.30070579950427306
vn -0.9455577700244292 -0.12448504203688457 0.30070579950427306
vn -0.9455577700244292 -0.12448504203688457 0.30070579950427306
vn -0.9455577700244292 -0.12448504203688457 0.30070579950427306
vn -0.9455577700244292 -0.12448504203688457 0.30070579950427306
usemtl m_0
f 61/157/157 63/158/158 62/159/159
f 63/160/160 64/161/161 62/162/162
